<svg xmlns="http://www.w3.org/2000/svg" version="1.1" xmlns:xlink="http://www.w3.org/1999/xlink" xmlns:svgjs="http://svgjs.dev/svgjs" width="1000" height="426" viewBox="0 0 1000 426"><g transform="matrix(1,0,0,1,0.7758992681449968,2.2557437998103467)"><svg viewBox="0 0 89 38" data-background-color="#282634" preserveAspectRatio="xMidYMid meet" height="426" width="1000" xmlns="http://www.w3.org/2000/svg" xmlns:xlink="http://www.w3.org/1999/xlink"><g id="tight-bounds" transform="matrix(1,0,0,1,-0.06905503486490261,-0.20121658308167412)"><svg viewBox="0 0 89.13810923912195 38.40243216547393" height="38.40243216547393" width="89.13810923912195"><g><svg viewBox="0 0 89.13810923912195 38.40243216547393" height="38.40243216547393" width="89.13810923912195"><g><svg viewBox="0 0 89.13810923912195 38.40243216547393" height="38.40243216547393" width="89.13810923912195"><g id="textblocktransform"><svg viewBox="0 0 89.13810923912195 38.40243216547393" height="38.40243216547393" width="89.13810923912195" id="textblock"><g><svg viewBox="0 0 89.13810923912195 38.40243216547393" height="38.40243216547393" width="89.13810923912195"><g><svg><g></g><g></g></svg></g><g><svg><g></g><g><svg></svg></g></svg></g><g id="text-0"><svg viewBox="0 0 89.13810923912195 38.40243216547393" height="38.40243216547393" width="89.13810923912195"><g><svg xmlns="http://www.w3.org/2000/svg" xmlns:xlink="http://www.w3.org/1999/xlink" version="1.1" x="0" y="0" viewBox="0 13.42199993133545 100 84.61499786376953" enable-background="new 0 0 100 100" xml:space="preserve" height="38.40243216547393" width="45.384899999999995" class="icon-s-0" data-fill-palette-color="accent" id="s-0"><g fill="#dcdcdc" data-fill-palette-color="accent"><path d="M0 13.422v84.615h100V13.422H0zM92.308 90.346H7.692V28.807h84.615V90.346z" fill="#dcdcdc" data-fill-palette-color="accent"></path><rect x="42.002" y="66.065" width="26.488" height="7.775" fill="#dcdcdc" data-fill-palette-color="accent"></rect><polygon points="15.521,66.064 41.988,55.549 41.988,55.527 42.002,55.533 42.002,47.181 41.988,47.187 41.988,47.165    15.521,36.65 15.515,45.014 31.487,51.357 15.515,57.701  " fill="#dcdcdc" data-fill-palette-color="accent"></polygon></g></svg></g><g transform="matrix(1,0,0,1,59.070049999999995,0)"><svg width="30.068059239121947" viewBox="0.699999988079071 -35.83000183105469 28.049999237060547 35.83000183105469" height="38.40243216547393" data-palette-color="#ff4057"><path d="M0.7-35.83L28.75-35.83 28.75-31.75 17.18-31.75 17.18 0 12.33 0 12.33-31.75 0.7-31.75 0.7-35.83Z" opacity="1" transform="matrix(1,0,0,1,0,0)" fill="#ff4057" class="undefined-text-0" data-fill-palette-color="primary"></path></svg></g></svg></g></svg></g></svg></g></svg></g></svg></g><defs></defs></svg><rect width="89.13810923912195" height="38.40243216547393" fill="none" stroke="none" visibility="hidden"></rect></g></svg></g></svg>